<?xml version="1.0" encoding="utf-8" standalone="no"?>
<!DOCTYPE svg PUBLIC "-//W3C//DTD SVG 1.1//EN"
  "http://www.w3.org/Graphics/SVG/1.1/DTD/svg11.dtd">
<!-- Created with matplotlib (https://matplotlib.org/) -->
<svg height="288pt" version="1.1" viewBox="0 0 504 288" width="504pt" xmlns="http://www.w3.org/2000/svg" xmlns:xlink="http://www.w3.org/1999/xlink">
 <metadata>
  <rdf:RDF xmlns:cc="http://creativecommons.org/ns#" xmlns:dc="http://purl.org/dc/elements/1.1/" xmlns:rdf="http://www.w3.org/1999/02/22-rdf-syntax-ns#">
   <cc:Work>
    <dc:type rdf:resource="http://purl.org/dc/dcmitype/StillImage"/>
    <dc:date>2021-11-10T17:24:12.031358</dc:date>
    <dc:format>image/svg+xml</dc:format>
    <dc:creator>
     <cc:Agent>
      <dc:title>Matplotlib v3.3.2, https://matplotlib.org/</dc:title>
     </cc:Agent>
    </dc:creator>
   </cc:Work>
  </rdf:RDF>
 </metadata>
 <defs>
  <style type="text/css">*{stroke-linecap:butt;stroke-linejoin:round;}</style>
 </defs>
 <g id="figure_1">
  <g id="patch_1">
   <path d="M 0 288 
L 504 288 
L 504 0 
L 0 0 
z
" style="fill:#ffffff;"/>
  </g>
  <g id="axes_1">
   <g id="patch_2">
    <path d="M 63 252 
L 453.6 252 
L 453.6 34.56 
L 63 34.56 
z
" style="fill:#ffffff;"/>
   </g>
   <g id="matplotlib.axis_1">
    <g id="xtick_1">
     <g id="text_1">
      <!-- TATAAT -->
      <g style="fill:#262626;" transform="translate(64.888828 267.358281)scale(0.11 -0.11)">
       <defs>
        <path d="M -0.296875 72.90625 
L 61.375 72.90625 
L 61.375 64.59375 
L 35.5 64.59375 
L 35.5 0 
L 25.59375 0 
L 25.59375 64.59375 
L -0.296875 64.59375 
z
" id="DejaVuSans-84"/>
        <path d="M 34.1875 63.1875 
L 20.796875 26.90625 
L 47.609375 26.90625 
z
M 28.609375 72.90625 
L 39.796875 72.90625 
L 67.578125 0 
L 57.328125 0 
L 50.6875 18.703125 
L 17.828125 18.703125 
L 11.1875 0 
L 0.78125 0 
z
" id="DejaVuSans-65"/>
       </defs>
       <use xlink:href="#DejaVuSans-84"/>
       <use x="53.333984" xlink:href="#DejaVuSans-65"/>
       <use x="113.992188" xlink:href="#DejaVuSans-84"/>
       <use x="167.326172" xlink:href="#DejaVuSans-65"/>
       <use x="238.484375" xlink:href="#DejaVuSans-65"/>
       <use x="299.142578" xlink:href="#DejaVuSans-84"/>
      </g>
      <!-- (n=51) -->
      <g style="fill:#262626;" transform="translate(65.315078 279.675875)scale(0.11 -0.11)">
       <defs>
        <path d="M 31 75.875 
Q 24.46875 64.65625 21.28125 53.65625 
Q 18.109375 42.671875 18.109375 31.390625 
Q 18.109375 20.125 21.3125 9.0625 
Q 24.515625 -2 31 -13.1875 
L 23.1875 -13.1875 
Q 15.875 -1.703125 12.234375 9.375 
Q 8.59375 20.453125 8.59375 31.390625 
Q 8.59375 42.28125 12.203125 53.3125 
Q 15.828125 64.359375 23.1875 75.875 
z
" id="DejaVuSans-40"/>
        <path d="M 54.890625 33.015625 
L 54.890625 0 
L 45.90625 0 
L 45.90625 32.71875 
Q 45.90625 40.484375 42.875 44.328125 
Q 39.84375 48.1875 33.796875 48.1875 
Q 26.515625 48.1875 22.3125 43.546875 
Q 18.109375 38.921875 18.109375 30.90625 
L 18.109375 0 
L 9.078125 0 
L 9.078125 54.6875 
L 18.109375 54.6875 
L 18.109375 46.1875 
Q 21.34375 51.125 25.703125 53.5625 
Q 30.078125 56 35.796875 56 
Q 45.21875 56 50.046875 50.171875 
Q 54.890625 44.34375 54.890625 33.015625 
z
" id="DejaVuSans-110"/>
        <path d="M 10.59375 45.40625 
L 73.1875 45.40625 
L 73.1875 37.203125 
L 10.59375 37.203125 
z
M 10.59375 25.484375 
L 73.1875 25.484375 
L 73.1875 17.1875 
L 10.59375 17.1875 
z
" id="DejaVuSans-61"/>
        <path d="M 10.796875 72.90625 
L 49.515625 72.90625 
L 49.515625 64.59375 
L 19.828125 64.59375 
L 19.828125 46.734375 
Q 21.96875 47.46875 24.109375 47.828125 
Q 26.265625 48.1875 28.421875 48.1875 
Q 40.625 48.1875 47.75 41.5 
Q 54.890625 34.8125 54.890625 23.390625 
Q 54.890625 11.625 47.5625 5.09375 
Q 40.234375 -1.421875 26.90625 -1.421875 
Q 22.3125 -1.421875 17.546875 -0.640625 
Q 12.796875 0.140625 7.71875 1.703125 
L 7.71875 11.625 
Q 12.109375 9.234375 16.796875 8.0625 
Q 21.484375 6.890625 26.703125 6.890625 
Q 35.15625 6.890625 40.078125 11.328125 
Q 45.015625 15.765625 45.015625 23.390625 
Q 45.015625 31 40.078125 35.4375 
Q 35.15625 39.890625 26.703125 39.890625 
Q 22.75 39.890625 18.8125 39.015625 
Q 14.890625 38.140625 10.796875 36.28125 
z
" id="DejaVuSans-53"/>
        <path d="M 12.40625 8.296875 
L 28.515625 8.296875 
L 28.515625 63.921875 
L 10.984375 60.40625 
L 10.984375 69.390625 
L 28.421875 72.90625 
L 38.28125 72.90625 
L 38.28125 8.296875 
L 54.390625 8.296875 
L 54.390625 0 
L 12.40625 0 
z
" id="DejaVuSans-49"/>
        <path d="M 8.015625 75.875 
L 15.828125 75.875 
Q 23.140625 64.359375 26.78125 53.3125 
Q 30.421875 42.28125 30.421875 31.390625 
Q 30.421875 20.453125 26.78125 9.375 
Q 23.140625 -1.703125 15.828125 -13.1875 
L 8.015625 -13.1875 
Q 14.5 -2 17.703125 9.0625 
Q 20.90625 20.125 20.90625 31.390625 
Q 20.90625 42.671875 17.703125 53.65625 
Q 14.5 64.65625 8.015625 75.875 
z
" id="DejaVuSans-41"/>
       </defs>
       <use xlink:href="#DejaVuSans-40"/>
       <use x="39.013672" xlink:href="#DejaVuSans-110"/>
       <use x="102.392578" xlink:href="#DejaVuSans-61"/>
       <use x="186.181641" xlink:href="#DejaVuSans-53"/>
       <use x="249.804688" xlink:href="#DejaVuSans-49"/>
       <use x="313.427734" xlink:href="#DejaVuSans-41"/>
      </g>
     </g>
    </g>
    <g id="xtick_2">
     <g id="text_2">
      <!-- TAGAAT -->
      <g style="fill:#262626;" transform="translate(106.630234 267.358281)scale(0.11 -0.11)">
       <defs>
        <path d="M 59.515625 10.40625 
L 59.515625 29.984375 
L 43.40625 29.984375 
L 43.40625 38.09375 
L 69.28125 38.09375 
L 69.28125 6.78125 
Q 63.578125 2.734375 56.6875 0.65625 
Q 49.8125 -1.421875 42 -1.421875 
Q 24.90625 -1.421875 15.25 8.5625 
Q 5.609375 18.5625 5.609375 36.375 
Q 5.609375 54.25 15.25 64.234375 
Q 24.90625 74.21875 42 74.21875 
Q 49.125 74.21875 55.546875 72.453125 
Q 61.96875 70.703125 67.390625 67.28125 
L 67.390625 56.78125 
Q 61.921875 61.421875 55.765625 63.765625 
Q 49.609375 66.109375 42.828125 66.109375 
Q 29.4375 66.109375 22.71875 58.640625 
Q 16.015625 51.171875 16.015625 36.375 
Q 16.015625 21.625 22.71875 14.15625 
Q 29.4375 6.6875 42.828125 6.6875 
Q 48.046875 6.6875 52.140625 7.59375 
Q 56.25 8.5 59.515625 10.40625 
z
" id="DejaVuSans-71"/>
       </defs>
       <use xlink:href="#DejaVuSans-84"/>
       <use x="53.333984" xlink:href="#DejaVuSans-65"/>
       <use x="119.992188" xlink:href="#DejaVuSans-71"/>
       <use x="197.482422" xlink:href="#DejaVuSans-65"/>
       <use x="268.640625" xlink:href="#DejaVuSans-65"/>
       <use x="329.298828" xlink:href="#DejaVuSans-84"/>
      </g>
      <!-- (n=38) -->
      <g style="fill:#262626;" transform="translate(108.715078 279.675875)scale(0.11 -0.11)">
       <defs>
        <path d="M 40.578125 39.3125 
Q 47.65625 37.796875 51.625 33 
Q 55.609375 28.21875 55.609375 21.1875 
Q 55.609375 10.40625 48.1875 4.484375 
Q 40.765625 -1.421875 27.09375 -1.421875 
Q 22.515625 -1.421875 17.65625 -0.515625 
Q 12.796875 0.390625 7.625 2.203125 
L 7.625 11.71875 
Q 11.71875 9.328125 16.59375 8.109375 
Q 21.484375 6.890625 26.8125 6.890625 
Q 36.078125 6.890625 40.9375 10.546875 
Q 45.796875 14.203125 45.796875 21.1875 
Q 45.796875 27.640625 41.28125 31.265625 
Q 36.765625 34.90625 28.71875 34.90625 
L 20.21875 34.90625 
L 20.21875 43.015625 
L 29.109375 43.015625 
Q 36.375 43.015625 40.234375 45.921875 
Q 44.09375 48.828125 44.09375 54.296875 
Q 44.09375 59.90625 40.109375 62.90625 
Q 36.140625 65.921875 28.71875 65.921875 
Q 24.65625 65.921875 20.015625 65.03125 
Q 15.375 64.15625 9.8125 62.3125 
L 9.8125 71.09375 
Q 15.4375 72.65625 20.34375 73.4375 
Q 25.25 74.21875 29.59375 74.21875 
Q 40.828125 74.21875 47.359375 69.109375 
Q 53.90625 64.015625 53.90625 55.328125 
Q 53.90625 49.265625 50.4375 45.09375 
Q 46.96875 40.921875 40.578125 39.3125 
z
" id="DejaVuSans-51"/>
        <path d="M 31.78125 34.625 
Q 24.75 34.625 20.71875 30.859375 
Q 16.703125 27.09375 16.703125 20.515625 
Q 16.703125 13.921875 20.71875 10.15625 
Q 24.75 6.390625 31.78125 6.390625 
Q 38.8125 6.390625 42.859375 10.171875 
Q 46.921875 13.96875 46.921875 20.515625 
Q 46.921875 27.09375 42.890625 30.859375 
Q 38.875 34.625 31.78125 34.625 
z
M 21.921875 38.8125 
Q 15.578125 40.375 12.03125 44.71875 
Q 8.5 49.078125 8.5 55.328125 
Q 8.5 64.0625 14.71875 69.140625 
Q 20.953125 74.21875 31.78125 74.21875 
Q 42.671875 74.21875 48.875 69.140625 
Q 55.078125 64.0625 55.078125 55.328125 
Q 55.078125 49.078125 51.53125 44.71875 
Q 48 40.375 41.703125 38.8125 
Q 48.828125 37.15625 52.796875 32.3125 
Q 56.78125 27.484375 56.78125 20.515625 
Q 56.78125 9.90625 50.3125 4.234375 
Q 43.84375 -1.421875 31.78125 -1.421875 
Q 19.734375 -1.421875 13.25 4.234375 
Q 6.78125 9.90625 6.78125 20.515625 
Q 6.78125 27.484375 10.78125 32.3125 
Q 14.796875 37.15625 21.921875 38.8125 
z
M 18.3125 54.390625 
Q 18.3125 48.734375 21.84375 45.5625 
Q 25.390625 42.390625 31.78125 42.390625 
Q 38.140625 42.390625 41.71875 45.5625 
Q 45.3125 48.734375 45.3125 54.390625 
Q 45.3125 60.0625 41.71875 63.234375 
Q 38.140625 66.40625 31.78125 66.40625 
Q 25.390625 66.40625 21.84375 63.234375 
Q 18.3125 60.0625 18.3125 54.390625 
z
" id="DejaVuSans-56"/>
       </defs>
       <use xlink:href="#DejaVuSans-40"/>
       <use x="39.013672" xlink:href="#DejaVuSans-110"/>
       <use x="102.392578" xlink:href="#DejaVuSans-61"/>
       <use x="186.181641" xlink:href="#DejaVuSans-51"/>
       <use x="249.804688" xlink:href="#DejaVuSans-56"/>
       <use x="313.427734" xlink:href="#DejaVuSans-41"/>
      </g>
     </g>
    </g>
    <g id="xtick_3">
     <g id="text_3">
      <!-- TAAAAT -->
      <g style="fill:#262626;" transform="translate(150.130781 267.358281)scale(0.11 -0.11)">
       <use xlink:href="#DejaVuSans-84"/>
       <use x="53.333984" xlink:href="#DejaVuSans-65"/>
       <use x="124.492188" xlink:href="#DejaVuSans-65"/>
       <use x="195.650391" xlink:href="#DejaVuSans-65"/>
       <use x="266.808594" xlink:href="#DejaVuSans-65"/>
       <use x="327.466797" xlink:href="#DejaVuSans-84"/>
      </g>
      <!-- (n=56) -->
      <g style="fill:#262626;" transform="translate(152.115078 279.675875)scale(0.11 -0.11)">
       <defs>
        <path d="M 33.015625 40.375 
Q 26.375 40.375 22.484375 35.828125 
Q 18.609375 31.296875 18.609375 23.390625 
Q 18.609375 15.53125 22.484375 10.953125 
Q 26.375 6.390625 33.015625 6.390625 
Q 39.65625 6.390625 43.53125 10.953125 
Q 47.40625 15.53125 47.40625 23.390625 
Q 47.40625 31.296875 43.53125 35.828125 
Q 39.65625 40.375 33.015625 40.375 
z
M 52.59375 71.296875 
L 52.59375 62.3125 
Q 48.875 64.0625 45.09375 64.984375 
Q 41.3125 65.921875 37.59375 65.921875 
Q 27.828125 65.921875 22.671875 59.328125 
Q 17.53125 52.734375 16.796875 39.40625 
Q 19.671875 43.65625 24.015625 45.921875 
Q 28.375 48.1875 33.59375 48.1875 
Q 44.578125 48.1875 50.953125 41.515625 
Q 57.328125 34.859375 57.328125 23.390625 
Q 57.328125 12.15625 50.6875 5.359375 
Q 44.046875 -1.421875 33.015625 -1.421875 
Q 20.359375 -1.421875 13.671875 8.265625 
Q 6.984375 17.96875 6.984375 36.375 
Q 6.984375 53.65625 15.1875 63.9375 
Q 23.390625 74.21875 37.203125 74.21875 
Q 40.921875 74.21875 44.703125 73.484375 
Q 48.484375 72.75 52.59375 71.296875 
z
" id="DejaVuSans-54"/>
       </defs>
       <use xlink:href="#DejaVuSans-40"/>
       <use x="39.013672" xlink:href="#DejaVuSans-110"/>
       <use x="102.392578" xlink:href="#DejaVuSans-61"/>
       <use x="186.181641" xlink:href="#DejaVuSans-53"/>
       <use x="249.804688" xlink:href="#DejaVuSans-54"/>
       <use x="313.427734" xlink:href="#DejaVuSans-41"/>
      </g>
     </g>
    </g>
    <g id="xtick_4">
     <g id="text_4">
      <!-- TATACT -->
      <g style="fill:#262626;" transform="translate(194.831875 267.358281)scale(0.11 -0.11)">
       <defs>
        <path d="M 64.40625 67.28125 
L 64.40625 56.890625 
Q 59.421875 61.53125 53.78125 63.8125 
Q 48.140625 66.109375 41.796875 66.109375 
Q 29.296875 66.109375 22.65625 58.46875 
Q 16.015625 50.828125 16.015625 36.375 
Q 16.015625 21.96875 22.65625 14.328125 
Q 29.296875 6.6875 41.796875 6.6875 
Q 48.140625 6.6875 53.78125 8.984375 
Q 59.421875 11.28125 64.40625 15.921875 
L 64.40625 5.609375 
Q 59.234375 2.09375 53.4375 0.328125 
Q 47.65625 -1.421875 41.21875 -1.421875 
Q 24.65625 -1.421875 15.125 8.703125 
Q 5.609375 18.84375 5.609375 36.375 
Q 5.609375 53.953125 15.125 64.078125 
Q 24.65625 74.21875 41.21875 74.21875 
Q 47.75 74.21875 53.53125 72.484375 
Q 59.328125 70.75 64.40625 67.28125 
z
" id="DejaVuSans-67"/>
       </defs>
       <use xlink:href="#DejaVuSans-84"/>
       <use x="53.333984" xlink:href="#DejaVuSans-65"/>
       <use x="113.992188" xlink:href="#DejaVuSans-84"/>
       <use x="167.326172" xlink:href="#DejaVuSans-65"/>
       <use x="233.984375" xlink:href="#DejaVuSans-67"/>
       <use x="303.808594" xlink:href="#DejaVuSans-84"/>
      </g>
      <!-- (n=43) -->
      <g style="fill:#262626;" transform="translate(195.515078 279.675875)scale(0.11 -0.11)">
       <defs>
        <path d="M 37.796875 64.3125 
L 12.890625 25.390625 
L 37.796875 25.390625 
z
M 35.203125 72.90625 
L 47.609375 72.90625 
L 47.609375 25.390625 
L 58.015625 25.390625 
L 58.015625 17.1875 
L 47.609375 17.1875 
L 47.609375 0 
L 37.796875 0 
L 37.796875 17.1875 
L 4.890625 17.1875 
L 4.890625 26.703125 
z
" id="DejaVuSans-52"/>
       </defs>
       <use xlink:href="#DejaVuSans-40"/>
       <use x="39.013672" xlink:href="#DejaVuSans-110"/>
       <use x="102.392578" xlink:href="#DejaVuSans-61"/>
       <use x="186.181641" xlink:href="#DejaVuSans-52"/>
       <use x="249.804688" xlink:href="#DejaVuSans-51"/>
       <use x="313.427734" xlink:href="#DejaVuSans-41"/>
      </g>
     </g>
    </g>
    <g id="xtick_5">
     <g id="text_5">
      <!-- TATGAT -->
      <g style="fill:#262626;" transform="translate(237.714531 267.358281)scale(0.11 -0.11)">
       <use xlink:href="#DejaVuSans-84"/>
       <use x="53.333984" xlink:href="#DejaVuSans-65"/>
       <use x="113.992188" xlink:href="#DejaVuSans-84"/>
       <use x="175.076172" xlink:href="#DejaVuSans-71"/>
       <use x="252.566406" xlink:href="#DejaVuSans-65"/>
       <use x="313.224609" xlink:href="#DejaVuSans-84"/>
      </g>
      <!-- (n=34) -->
      <g style="fill:#262626;" transform="translate(238.915078 279.675875)scale(0.11 -0.11)">
       <use xlink:href="#DejaVuSans-40"/>
       <use x="39.013672" xlink:href="#DejaVuSans-110"/>
       <use x="102.392578" xlink:href="#DejaVuSans-61"/>
       <use x="186.181641" xlink:href="#DejaVuSans-51"/>
       <use x="249.804688" xlink:href="#DejaVuSans-52"/>
       <use x="313.427734" xlink:href="#DejaVuSans-41"/>
      </g>
     </g>
    </g>
    <g id="xtick_6">
     <g id="text_6">
      <!-- TAAACT -->
      <g style="fill:#262626;" transform="translate(280.073828 267.358281)scale(0.11 -0.11)">
       <use xlink:href="#DejaVuSans-84"/>
       <use x="53.333984" xlink:href="#DejaVuSans-65"/>
       <use x="124.492188" xlink:href="#DejaVuSans-65"/>
       <use x="195.650391" xlink:href="#DejaVuSans-65"/>
       <use x="262.308594" xlink:href="#DejaVuSans-67"/>
       <use x="332.132812" xlink:href="#DejaVuSans-84"/>
      </g>
      <!-- (n=35) -->
      <g style="fill:#262626;" transform="translate(282.315078 279.675875)scale(0.11 -0.11)">
       <use xlink:href="#DejaVuSans-40"/>
       <use x="39.013672" xlink:href="#DejaVuSans-110"/>
       <use x="102.392578" xlink:href="#DejaVuSans-61"/>
       <use x="186.181641" xlink:href="#DejaVuSans-51"/>
       <use x="249.804688" xlink:href="#DejaVuSans-53"/>
       <use x="313.427734" xlink:href="#DejaVuSans-41"/>
      </g>
     </g>
    </g>
    <g id="xtick_7">
     <g id="text_7">
      <!-- TATCAT -->
      <g style="fill:#262626;" transform="translate(325.25875 267.358281)scale(0.11 -0.11)">
       <use xlink:href="#DejaVuSans-84"/>
       <use x="53.333984" xlink:href="#DejaVuSans-65"/>
       <use x="113.992188" xlink:href="#DejaVuSans-84"/>
       <use x="169.201172" xlink:href="#DejaVuSans-67"/>
       <use x="239.025391" xlink:href="#DejaVuSans-65"/>
       <use x="299.683594" xlink:href="#DejaVuSans-84"/>
      </g>
      <!-- (n=27) -->
      <g style="fill:#262626;" transform="translate(325.715078 279.675875)scale(0.11 -0.11)">
       <defs>
        <path d="M 19.1875 8.296875 
L 53.609375 8.296875 
L 53.609375 0 
L 7.328125 0 
L 7.328125 8.296875 
Q 12.9375 14.109375 22.625 23.890625 
Q 32.328125 33.6875 34.8125 36.53125 
Q 39.546875 41.84375 41.421875 45.53125 
Q 43.3125 49.21875 43.3125 52.78125 
Q 43.3125 58.59375 39.234375 62.25 
Q 35.15625 65.921875 28.609375 65.921875 
Q 23.96875 65.921875 18.8125 64.3125 
Q 13.671875 62.703125 7.8125 59.421875 
L 7.8125 69.390625 
Q 13.765625 71.78125 18.9375 73 
Q 24.125 74.21875 28.421875 74.21875 
Q 39.75 74.21875 46.484375 68.546875 
Q 53.21875 62.890625 53.21875 53.421875 
Q 53.21875 48.921875 51.53125 44.890625 
Q 49.859375 40.875 45.40625 35.40625 
Q 44.1875 33.984375 37.640625 27.21875 
Q 31.109375 20.453125 19.1875 8.296875 
z
" id="DejaVuSans-50"/>
        <path d="M 8.203125 72.90625 
L 55.078125 72.90625 
L 55.078125 68.703125 
L 28.609375 0 
L 18.3125 0 
L 43.21875 64.59375 
L 8.203125 64.59375 
z
" id="DejaVuSans-55"/>
       </defs>
       <use xlink:href="#DejaVuSans-40"/>
       <use x="39.013672" xlink:href="#DejaVuSans-110"/>
       <use x="102.392578" xlink:href="#DejaVuSans-61"/>
       <use x="186.181641" xlink:href="#DejaVuSans-50"/>
       <use x="249.804688" xlink:href="#DejaVuSans-55"/>
       <use x="313.427734" xlink:href="#DejaVuSans-41"/>
      </g>
     </g>
    </g>
    <g id="xtick_8">
     <g id="text_8">
      <!-- TATTAT -->
      <g style="fill:#262626;" transform="translate(369.339375 267.358281)scale(0.11 -0.11)">
       <use xlink:href="#DejaVuSans-84"/>
       <use x="53.333984" xlink:href="#DejaVuSans-65"/>
       <use x="113.992188" xlink:href="#DejaVuSans-84"/>
       <use x="173.326172" xlink:href="#DejaVuSans-84"/>
       <use x="226.660156" xlink:href="#DejaVuSans-65"/>
       <use x="287.318359" xlink:href="#DejaVuSans-84"/>
      </g>
      <!-- (n=30) -->
      <g style="fill:#262626;" transform="translate(369.115078 279.675875)scale(0.11 -0.11)">
       <defs>
        <path d="M 31.78125 66.40625 
Q 24.171875 66.40625 20.328125 58.90625 
Q 16.5 51.421875 16.5 36.375 
Q 16.5 21.390625 20.328125 13.890625 
Q 24.171875 6.390625 31.78125 6.390625 
Q 39.453125 6.390625 43.28125 13.890625 
Q 47.125 21.390625 47.125 36.375 
Q 47.125 51.421875 43.28125 58.90625 
Q 39.453125 66.40625 31.78125 66.40625 
z
M 31.78125 74.21875 
Q 44.046875 74.21875 50.515625 64.515625 
Q 56.984375 54.828125 56.984375 36.375 
Q 56.984375 17.96875 50.515625 8.265625 
Q 44.046875 -1.421875 31.78125 -1.421875 
Q 19.53125 -1.421875 13.0625 8.265625 
Q 6.59375 17.96875 6.59375 36.375 
Q 6.59375 54.828125 13.0625 64.515625 
Q 19.53125 74.21875 31.78125 74.21875 
z
" id="DejaVuSans-48"/>
       </defs>
       <use xlink:href="#DejaVuSans-40"/>
       <use x="39.013672" xlink:href="#DejaVuSans-110"/>
       <use x="102.392578" xlink:href="#DejaVuSans-61"/>
       <use x="186.181641" xlink:href="#DejaVuSans-51"/>
       <use x="249.804688" xlink:href="#DejaVuSans-48"/>
       <use x="313.427734" xlink:href="#DejaVuSans-41"/>
      </g>
     </g>
    </g>
    <g id="xtick_9">
     <g id="text_9">
      <!-- TATCTT -->
      <g style="fill:#262626;" transform="translate(412.131797 267.358281)scale(0.11 -0.11)">
       <use xlink:href="#DejaVuSans-84"/>
       <use x="53.333984" xlink:href="#DejaVuSans-65"/>
       <use x="113.992188" xlink:href="#DejaVuSans-84"/>
       <use x="169.201172" xlink:href="#DejaVuSans-67"/>
       <use x="239.025391" xlink:href="#DejaVuSans-84"/>
       <use x="298.359375" xlink:href="#DejaVuSans-84"/>
      </g>
      <!-- (n=30) -->
      <g style="fill:#262626;" transform="translate(412.515078 279.675875)scale(0.11 -0.11)">
       <use xlink:href="#DejaVuSans-40"/>
       <use x="39.013672" xlink:href="#DejaVuSans-110"/>
       <use x="102.392578" xlink:href="#DejaVuSans-61"/>
       <use x="186.181641" xlink:href="#DejaVuSans-51"/>
       <use x="249.804688" xlink:href="#DejaVuSans-48"/>
       <use x="313.427734" xlink:href="#DejaVuSans-41"/>
      </g>
     </g>
    </g>
   </g>
   <g id="matplotlib.axis_2">
    <g id="ytick_1">
     <g id="line2d_1">
      <path clip-path="url(#pc5f395c68f)" d="M 63 219.981021 
L 453.6 219.981021 
" style="fill:none;stroke:#cccccc;stroke-linecap:round;stroke-width:0.8;"/>
     </g>
     <g id="text_10">
      <!-- 2 -->
      <g style="fill:#262626;" transform="translate(49.00125 224.160162)scale(0.11 -0.11)">
       <use xlink:href="#DejaVuSans-50"/>
      </g>
     </g>
    </g>
    <g id="ytick_2">
     <g id="line2d_2">
      <path clip-path="url(#pc5f395c68f)" d="M 63 186.438187 
L 453.6 186.438187 
" style="fill:none;stroke:#cccccc;stroke-linecap:round;stroke-width:0.8;"/>
     </g>
     <g id="text_11">
      <!-- 4 -->
      <g style="fill:#262626;" transform="translate(49.00125 190.617327)scale(0.11 -0.11)">
       <use xlink:href="#DejaVuSans-52"/>
      </g>
     </g>
    </g>
    <g id="ytick_3">
     <g id="line2d_3">
      <path clip-path="url(#pc5f395c68f)" d="M 63 152.895352 
L 453.6 152.895352 
" style="fill:none;stroke:#cccccc;stroke-linecap:round;stroke-width:0.8;"/>
     </g>
     <g id="text_12">
      <!-- 6 -->
      <g style="fill:#262626;" transform="translate(49.00125 157.074493)scale(0.11 -0.11)">
       <use xlink:href="#DejaVuSans-54"/>
      </g>
     </g>
    </g>
    <g id="ytick_4">
     <g id="line2d_4">
      <path clip-path="url(#pc5f395c68f)" d="M 63 119.352517 
L 453.6 119.352517 
" style="fill:none;stroke:#cccccc;stroke-linecap:round;stroke-width:0.8;"/>
     </g>
     <g id="text_13">
      <!-- 8 -->
      <g style="fill:#262626;" transform="translate(49.00125 123.531658)scale(0.11 -0.11)">
       <use xlink:href="#DejaVuSans-56"/>
      </g>
     </g>
    </g>
    <g id="ytick_5">
     <g id="line2d_5">
      <path clip-path="url(#pc5f395c68f)" d="M 63 85.809683 
L 453.6 85.809683 
" style="fill:none;stroke:#cccccc;stroke-linecap:round;stroke-width:0.8;"/>
     </g>
     <g id="text_14">
      <!-- 10 -->
      <g style="fill:#262626;" transform="translate(42.0025 89.988823)scale(0.11 -0.11)">
       <use xlink:href="#DejaVuSans-49"/>
       <use x="63.623047" xlink:href="#DejaVuSans-48"/>
      </g>
     </g>
    </g>
    <g id="ytick_6">
     <g id="line2d_6">
      <path clip-path="url(#pc5f395c68f)" d="M 63 52.266848 
L 453.6 52.266848 
" style="fill:none;stroke:#cccccc;stroke-linecap:round;stroke-width:0.8;"/>
     </g>
     <g id="text_15">
      <!-- 12 -->
      <g style="fill:#262626;" transform="translate(42.0025 56.445989)scale(0.11 -0.11)">
       <use xlink:href="#DejaVuSans-49"/>
       <use x="63.623047" xlink:href="#DejaVuSans-50"/>
      </g>
     </g>
    </g>
    <g id="text_16">
     <!-- log[TPM] -->
     <g style="fill:#262626;" transform="translate(35.298906 171.759141)rotate(-90)scale(0.13 -0.13)">
      <defs>
       <path d="M 9.421875 75.984375 
L 18.40625 75.984375 
L 18.40625 0 
L 9.421875 0 
z
" id="DejaVuSans-108"/>
       <path d="M 30.609375 48.390625 
Q 23.390625 48.390625 19.1875 42.75 
Q 14.984375 37.109375 14.984375 27.296875 
Q 14.984375 17.484375 19.15625 11.84375 
Q 23.34375 6.203125 30.609375 6.203125 
Q 37.796875 6.203125 41.984375 11.859375 
Q 46.1875 17.53125 46.1875 27.296875 
Q 46.1875 37.015625 41.984375 42.703125 
Q 37.796875 48.390625 30.609375 48.390625 
z
M 30.609375 56 
Q 42.328125 56 49.015625 48.375 
Q 55.71875 40.765625 55.71875 27.296875 
Q 55.71875 13.875 49.015625 6.21875 
Q 42.328125 -1.421875 30.609375 -1.421875 
Q 18.84375 -1.421875 12.171875 6.21875 
Q 5.515625 13.875 5.515625 27.296875 
Q 5.515625 40.765625 12.171875 48.375 
Q 18.84375 56 30.609375 56 
z
" id="DejaVuSans-111"/>
       <path d="M 45.40625 27.984375 
Q 45.40625 37.75 41.375 43.109375 
Q 37.359375 48.484375 30.078125 48.484375 
Q 22.859375 48.484375 18.828125 43.109375 
Q 14.796875 37.75 14.796875 27.984375 
Q 14.796875 18.265625 18.828125 12.890625 
Q 22.859375 7.515625 30.078125 7.515625 
Q 37.359375 7.515625 41.375 12.890625 
Q 45.40625 18.265625 45.40625 27.984375 
z
M 54.390625 6.78125 
Q 54.390625 -7.171875 48.1875 -13.984375 
Q 42 -20.796875 29.203125 -20.796875 
Q 24.46875 -20.796875 20.265625 -20.09375 
Q 16.0625 -19.390625 12.109375 -17.921875 
L 12.109375 -9.1875 
Q 16.0625 -11.328125 19.921875 -12.34375 
Q 23.78125 -13.375 27.78125 -13.375 
Q 36.625 -13.375 41.015625 -8.765625 
Q 45.40625 -4.15625 45.40625 5.171875 
L 45.40625 9.625 
Q 42.625 4.78125 38.28125 2.390625 
Q 33.9375 0 27.875 0 
Q 17.828125 0 11.671875 7.65625 
Q 5.515625 15.328125 5.515625 27.984375 
Q 5.515625 40.671875 11.671875 48.328125 
Q 17.828125 56 27.875 56 
Q 33.9375 56 38.28125 53.609375 
Q 42.625 51.21875 45.40625 46.390625 
L 45.40625 54.6875 
L 54.390625 54.6875 
z
" id="DejaVuSans-103"/>
       <path d="M 8.59375 75.984375 
L 29.296875 75.984375 
L 29.296875 69 
L 17.578125 69 
L 17.578125 -6.203125 
L 29.296875 -6.203125 
L 29.296875 -13.1875 
L 8.59375 -13.1875 
z
" id="DejaVuSans-91"/>
       <path d="M 19.671875 64.796875 
L 19.671875 37.40625 
L 32.078125 37.40625 
Q 38.96875 37.40625 42.71875 40.96875 
Q 46.484375 44.53125 46.484375 51.125 
Q 46.484375 57.671875 42.71875 61.234375 
Q 38.96875 64.796875 32.078125 64.796875 
z
M 9.8125 72.90625 
L 32.078125 72.90625 
Q 44.34375 72.90625 50.609375 67.359375 
Q 56.890625 61.8125 56.890625 51.125 
Q 56.890625 40.328125 50.609375 34.8125 
Q 44.34375 29.296875 32.078125 29.296875 
L 19.671875 29.296875 
L 19.671875 0 
L 9.8125 0 
z
" id="DejaVuSans-80"/>
       <path d="M 9.8125 72.90625 
L 24.515625 72.90625 
L 43.109375 23.296875 
L 61.8125 72.90625 
L 76.515625 72.90625 
L 76.515625 0 
L 66.890625 0 
L 66.890625 64.015625 
L 48.09375 14.015625 
L 38.1875 14.015625 
L 19.390625 64.015625 
L 19.390625 0 
L 9.8125 0 
z
" id="DejaVuSans-77"/>
       <path d="M 30.421875 75.984375 
L 30.421875 -13.1875 
L 9.71875 -13.1875 
L 9.71875 -6.203125 
L 21.390625 -6.203125 
L 21.390625 69 
L 9.71875 69 
L 9.71875 75.984375 
z
" id="DejaVuSans-93"/>
      </defs>
      <use xlink:href="#DejaVuSans-108"/>
      <use x="27.783203" xlink:href="#DejaVuSans-111"/>
      <use x="88.964844" xlink:href="#DejaVuSans-103"/>
      <use x="152.441406" xlink:href="#DejaVuSans-91"/>
      <use x="191.455078" xlink:href="#DejaVuSans-84"/>
      <use x="252.539062" xlink:href="#DejaVuSans-80"/>
      <use x="312.841797" xlink:href="#DejaVuSans-77"/>
      <use x="399.121094" xlink:href="#DejaVuSans-93"/>
     </g>
    </g>
   </g>
   <g id="patch_3">
    <path clip-path="url(#pc5f395c68f)" d="M 67.34 149.511974 
L 102.06 149.511974 
L 102.06 70.226462 
L 67.34 70.226462 
L 67.34 149.511974 
z
" style="fill:#3274a1;stroke:#3d3d3d;stroke-linejoin:miter;stroke-width:1.5;"/>
   </g>
   <g id="patch_4">
    <path clip-path="url(#pc5f395c68f)" d="M 110.74 153.395956 
L 145.46 153.395956 
L 145.46 112.050877 
L 110.74 112.050877 
L 110.74 153.395956 
z
" style="fill:#e1812c;stroke:#3d3d3d;stroke-linejoin:miter;stroke-width:1.5;"/>
   </g>
   <g id="patch_5">
    <path clip-path="url(#pc5f395c68f)" d="M 154.14 155.389695 
L 188.86 155.389695 
L 188.86 102.747995 
L 154.14 102.747995 
L 154.14 155.389695 
z
" style="fill:#3a923a;stroke:#3d3d3d;stroke-linejoin:miter;stroke-width:1.5;"/>
   </g>
   <g id="patch_6">
    <path clip-path="url(#pc5f395c68f)" d="M 197.54 178.443752 
L 232.26 178.443752 
L 232.26 110.11072 
L 197.54 110.11072 
L 197.54 178.443752 
z
" style="fill:#c03d3e;stroke:#3d3d3d;stroke-linejoin:miter;stroke-width:1.5;"/>
   </g>
   <g id="patch_7">
    <path clip-path="url(#pc5f395c68f)" d="M 240.94 177.111685 
L 275.66 177.111685 
L 275.66 127.070697 
L 240.94 127.070697 
L 240.94 177.111685 
z
" style="fill:#9372b2;stroke:#3d3d3d;stroke-linejoin:miter;stroke-width:1.5;"/>
   </g>
   <g id="patch_8">
    <path clip-path="url(#pc5f395c68f)" d="M 284.34 164.696385 
L 319.06 164.696385 
L 319.06 133.389647 
L 284.34 133.389647 
L 284.34 164.696385 
z
" style="fill:#845b53;stroke:#3d3d3d;stroke-linejoin:miter;stroke-width:1.5;"/>
   </g>
   <g id="patch_9">
    <path clip-path="url(#pc5f395c68f)" d="M 327.74 187.227481 
L 362.46 187.227481 
L 362.46 142.24464 
L 327.74 142.24464 
L 327.74 187.227481 
z
" style="fill:#d684bd;stroke:#3d3d3d;stroke-linejoin:miter;stroke-width:1.5;"/>
   </g>
   <g id="patch_10">
    <path clip-path="url(#pc5f395c68f)" d="M 371.14 182.767936 
L 405.86 182.767936 
L 405.86 138.56089 
L 371.14 138.56089 
L 371.14 182.767936 
z
" style="fill:#7f7f7f;stroke:#3d3d3d;stroke-linejoin:miter;stroke-width:1.5;"/>
   </g>
   <g id="patch_11">
    <path clip-path="url(#pc5f395c68f)" d="M 414.54 199.353319 
L 449.26 199.353319 
L 449.26 148.058129 
L 414.54 148.058129 
L 414.54 199.353319 
z
" style="fill:#a9aa35;stroke:#3d3d3d;stroke-linejoin:miter;stroke-width:1.5;"/>
   </g>
   <g id="line2d_7">
    <path clip-path="url(#pc5f395c68f)" d="M 84.7 149.511974 
L 84.7 229.001618 
" style="fill:none;stroke:#3d3d3d;stroke-linecap:round;stroke-width:1.5;"/>
   </g>
   <g id="line2d_8">
    <path clip-path="url(#pc5f395c68f)" d="M 84.7 70.226462 
L 84.7 45.182685 
" style="fill:none;stroke:#3d3d3d;stroke-linecap:round;stroke-width:1.5;"/>
   </g>
   <g id="line2d_9">
    <path clip-path="url(#pc5f395c68f)" d="M 76.02 229.001618 
L 93.38 229.001618 
" style="fill:none;stroke:#3d3d3d;stroke-linecap:round;stroke-width:1.5;"/>
   </g>
   <g id="line2d_10">
    <path clip-path="url(#pc5f395c68f)" d="M 76.02 45.182685 
L 93.38 45.182685 
" style="fill:none;stroke:#3d3d3d;stroke-linecap:round;stroke-width:1.5;"/>
   </g>
   <g id="line2d_11"/>
   <g id="line2d_12">
    <path clip-path="url(#pc5f395c68f)" d="M 128.1 153.395956 
L 128.1 212.669686 
" style="fill:none;stroke:#3d3d3d;stroke-linecap:round;stroke-width:1.5;"/>
   </g>
   <g id="line2d_13">
    <path clip-path="url(#pc5f395c68f)" d="M 128.1 112.050877 
L 128.1 61.698453 
" style="fill:none;stroke:#3d3d3d;stroke-linecap:round;stroke-width:1.5;"/>
   </g>
   <g id="line2d_14">
    <path clip-path="url(#pc5f395c68f)" d="M 119.42 212.669686 
L 136.78 212.669686 
" style="fill:none;stroke:#3d3d3d;stroke-linecap:round;stroke-width:1.5;"/>
   </g>
   <g id="line2d_15">
    <path clip-path="url(#pc5f395c68f)" d="M 119.42 61.698453 
L 136.78 61.698453 
" style="fill:none;stroke:#3d3d3d;stroke-linecap:round;stroke-width:1.5;"/>
   </g>
   <g id="line2d_16"/>
   <g id="line2d_17">
    <path clip-path="url(#pc5f395c68f)" d="M 171.5 155.389695 
L 171.5 230.294251 
" style="fill:none;stroke:#3d3d3d;stroke-linecap:round;stroke-width:1.5;"/>
   </g>
   <g id="line2d_18">
    <path clip-path="url(#pc5f395c68f)" d="M 171.5 102.747995 
L 171.5 44.443636 
" style="fill:none;stroke:#3d3d3d;stroke-linecap:round;stroke-width:1.5;"/>
   </g>
   <g id="line2d_19">
    <path clip-path="url(#pc5f395c68f)" d="M 162.82 230.294251 
L 180.18 230.294251 
" style="fill:none;stroke:#3d3d3d;stroke-linecap:round;stroke-width:1.5;"/>
   </g>
   <g id="line2d_20">
    <path clip-path="url(#pc5f395c68f)" d="M 162.82 44.443636 
L 180.18 44.443636 
" style="fill:none;stroke:#3d3d3d;stroke-linecap:round;stroke-width:1.5;"/>
   </g>
   <g id="line2d_21"/>
   <g id="line2d_22">
    <path clip-path="url(#pc5f395c68f)" d="M 214.9 178.443752 
L 214.9 231.011513 
" style="fill:none;stroke:#3d3d3d;stroke-linecap:round;stroke-width:1.5;"/>
   </g>
   <g id="line2d_23">
    <path clip-path="url(#pc5f395c68f)" d="M 214.9 110.11072 
L 214.9 52.942765 
" style="fill:none;stroke:#3d3d3d;stroke-linecap:round;stroke-width:1.5;"/>
   </g>
   <g id="line2d_24">
    <path clip-path="url(#pc5f395c68f)" d="M 206.22 231.011513 
L 223.58 231.011513 
" style="fill:none;stroke:#3d3d3d;stroke-linecap:round;stroke-width:1.5;"/>
   </g>
   <g id="line2d_25">
    <path clip-path="url(#pc5f395c68f)" d="M 206.22 52.942765 
L 223.58 52.942765 
" style="fill:none;stroke:#3d3d3d;stroke-linecap:round;stroke-width:1.5;"/>
   </g>
   <g id="line2d_26"/>
   <g id="line2d_27">
    <path clip-path="url(#pc5f395c68f)" d="M 258.3 177.111685 
L 258.3 229.707353 
" style="fill:none;stroke:#3d3d3d;stroke-linecap:round;stroke-width:1.5;"/>
   </g>
   <g id="line2d_28">
    <path clip-path="url(#pc5f395c68f)" d="M 258.3 127.070697 
L 258.3 103.902693 
" style="fill:none;stroke:#3d3d3d;stroke-linecap:round;stroke-width:1.5;"/>
   </g>
   <g id="line2d_29">
    <path clip-path="url(#pc5f395c68f)" d="M 249.62 229.707353 
L 266.98 229.707353 
" style="fill:none;stroke:#3d3d3d;stroke-linecap:round;stroke-width:1.5;"/>
   </g>
   <g id="line2d_30">
    <path clip-path="url(#pc5f395c68f)" d="M 249.62 103.902693 
L 266.98 103.902693 
" style="fill:none;stroke:#3d3d3d;stroke-linecap:round;stroke-width:1.5;"/>
   </g>
   <g id="line2d_31"/>
   <g id="line2d_32">
    <path clip-path="url(#pc5f395c68f)" d="M 301.7 164.696385 
L 301.7 210.144258 
" style="fill:none;stroke:#3d3d3d;stroke-linecap:round;stroke-width:1.5;"/>
   </g>
   <g id="line2d_33">
    <path clip-path="url(#pc5f395c68f)" d="M 301.7 133.389647 
L 301.7 111.864204 
" style="fill:none;stroke:#3d3d3d;stroke-linecap:round;stroke-width:1.5;"/>
   </g>
   <g id="line2d_34">
    <path clip-path="url(#pc5f395c68f)" d="M 293.02 210.144258 
L 310.38 210.144258 
" style="fill:none;stroke:#3d3d3d;stroke-linecap:round;stroke-width:1.5;"/>
   </g>
   <g id="line2d_35">
    <path clip-path="url(#pc5f395c68f)" d="M 293.02 111.864204 
L 310.38 111.864204 
" style="fill:none;stroke:#3d3d3d;stroke-linecap:round;stroke-width:1.5;"/>
   </g>
   <g id="line2d_36"/>
   <g id="line2d_37">
    <path clip-path="url(#pc5f395c68f)" d="M 345.1 187.227481 
L 345.1 222.661693 
" style="fill:none;stroke:#3d3d3d;stroke-linecap:round;stroke-width:1.5;"/>
   </g>
   <g id="line2d_38">
    <path clip-path="url(#pc5f395c68f)" d="M 345.1 142.24464 
L 345.1 93.981351 
" style="fill:none;stroke:#3d3d3d;stroke-linecap:round;stroke-width:1.5;"/>
   </g>
   <g id="line2d_39">
    <path clip-path="url(#pc5f395c68f)" d="M 336.42 222.661693 
L 353.78 222.661693 
" style="fill:none;stroke:#3d3d3d;stroke-linecap:round;stroke-width:1.5;"/>
   </g>
   <g id="line2d_40">
    <path clip-path="url(#pc5f395c68f)" d="M 336.42 93.981351 
L 353.78 93.981351 
" style="fill:none;stroke:#3d3d3d;stroke-linecap:round;stroke-width:1.5;"/>
   </g>
   <g id="line2d_41"/>
   <g id="line2d_42">
    <path clip-path="url(#pc5f395c68f)" d="M 388.5 182.767936 
L 388.5 237.70505 
" style="fill:none;stroke:#3d3d3d;stroke-linecap:round;stroke-width:1.5;"/>
   </g>
   <g id="line2d_43">
    <path clip-path="url(#pc5f395c68f)" d="M 388.5 138.56089 
L 388.5 110.366508 
" style="fill:none;stroke:#3d3d3d;stroke-linecap:round;stroke-width:1.5;"/>
   </g>
   <g id="line2d_44">
    <path clip-path="url(#pc5f395c68f)" d="M 379.82 237.70505 
L 397.18 237.70505 
" style="fill:none;stroke:#3d3d3d;stroke-linecap:round;stroke-width:1.5;"/>
   </g>
   <g id="line2d_45">
    <path clip-path="url(#pc5f395c68f)" d="M 379.82 110.366508 
L 397.18 110.366508 
" style="fill:none;stroke:#3d3d3d;stroke-linecap:round;stroke-width:1.5;"/>
   </g>
   <g id="line2d_46"/>
   <g id="line2d_47">
    <path clip-path="url(#pc5f395c68f)" d="M 431.9 199.353319 
L 431.9 225.607298 
" style="fill:none;stroke:#3d3d3d;stroke-linecap:round;stroke-width:1.5;"/>
   </g>
   <g id="line2d_48">
    <path clip-path="url(#pc5f395c68f)" d="M 431.9 148.058129 
L 431.9 122.348985 
" style="fill:none;stroke:#3d3d3d;stroke-linecap:round;stroke-width:1.5;"/>
   </g>
   <g id="line2d_49">
    <path clip-path="url(#pc5f395c68f)" d="M 423.22 225.607298 
L 440.58 225.607298 
" style="fill:none;stroke:#3d3d3d;stroke-linecap:round;stroke-width:1.5;"/>
   </g>
   <g id="line2d_50">
    <path clip-path="url(#pc5f395c68f)" d="M 423.22 122.348985 
L 440.58 122.348985 
" style="fill:none;stroke:#3d3d3d;stroke-linecap:round;stroke-width:1.5;"/>
   </g>
   <g id="line2d_51"/>
   <g id="line2d_52">
    <path clip-path="url(#pc5f395c68f)" d="M 67.34 110.122304 
L 102.06 110.122304 
" style="fill:none;stroke:#3d3d3d;stroke-linecap:round;stroke-width:1.5;"/>
   </g>
   <g id="line2d_53">
    <path clip-path="url(#pc5f395c68f)" d="M 110.74 130.16514 
L 145.46 130.16514 
" style="fill:none;stroke:#3d3d3d;stroke-linecap:round;stroke-width:1.5;"/>
   </g>
   <g id="line2d_54">
    <path clip-path="url(#pc5f395c68f)" d="M 154.14 132.482242 
L 188.86 132.482242 
" style="fill:none;stroke:#3d3d3d;stroke-linecap:round;stroke-width:1.5;"/>
   </g>
   <g id="line2d_55">
    <path clip-path="url(#pc5f395c68f)" d="M 197.54 141.375556 
L 232.26 141.375556 
" style="fill:none;stroke:#3d3d3d;stroke-linecap:round;stroke-width:1.5;"/>
   </g>
   <g id="line2d_56">
    <path clip-path="url(#pc5f395c68f)" d="M 240.94 152.152213 
L 275.66 152.152213 
" style="fill:none;stroke:#3d3d3d;stroke-linecap:round;stroke-width:1.5;"/>
   </g>
   <g id="line2d_57">
    <path clip-path="url(#pc5f395c68f)" d="M 284.34 158.299388 
L 319.06 158.299388 
" style="fill:none;stroke:#3d3d3d;stroke-linecap:round;stroke-width:1.5;"/>
   </g>
   <g id="line2d_58">
    <path clip-path="url(#pc5f395c68f)" d="M 327.74 161.354121 
L 362.46 161.354121 
" style="fill:none;stroke:#3d3d3d;stroke-linecap:round;stroke-width:1.5;"/>
   </g>
   <g id="line2d_59">
    <path clip-path="url(#pc5f395c68f)" d="M 371.14 168.456876 
L 405.86 168.456876 
" style="fill:none;stroke:#3d3d3d;stroke-linecap:round;stroke-width:1.5;"/>
   </g>
   <g id="line2d_60">
    <path clip-path="url(#pc5f395c68f)" d="M 414.54 188.029614 
L 449.26 188.029614 
" style="fill:none;stroke:#3d3d3d;stroke-linecap:round;stroke-width:1.5;"/>
   </g>
   <g id="patch_12">
    <path d="M 63 252 
L 63 34.56 
" style="fill:none;stroke:#cccccc;stroke-linecap:square;stroke-linejoin:miter;stroke-width:2;"/>
   </g>
   <g id="patch_13">
    <path d="M 453.6 252 
L 453.6 34.56 
" style="fill:none;stroke:#cccccc;stroke-linecap:square;stroke-linejoin:miter;stroke-width:2;"/>
   </g>
   <g id="patch_14">
    <path d="M 63 252 
L 453.6 252 
" style="fill:none;stroke:#cccccc;stroke-linecap:square;stroke-linejoin:miter;stroke-width:2;"/>
   </g>
   <g id="patch_15">
    <path d="M 63 34.56 
L 453.6 34.56 
" style="fill:none;stroke:#cccccc;stroke-linecap:square;stroke-linejoin:miter;stroke-width:2;"/>
   </g>
  </g>
 </g>
 <defs>
  <clipPath id="pc5f395c68f">
   <rect height="217.44" width="390.6" x="63" y="34.56"/>
  </clipPath>
 </defs>
</svg>
